<svg id="Icons" height="512" viewBox="0 0 74 74" width="512" xmlns="http://www.w3.org/2000/svg"><path d="m63.047 67.827h-52.094a3.5 3.5 0 0 1 -3.495-3.494v-51.267a1 1 0 0 1 1-1h57.084a1 1 0 0 1 1 1v51.267a3.5 3.5 0 0 1 -3.495 3.494zm-53.589-53.761v50.267a1.5 1.5 0 0 0 1.495 1.494h52.094a1.5 1.5 0 0 0 1.5-1.494v-50.267z"/><path d="m59.984 41.286h-45.968a1 1 0 0 1 -1-1v-20.871a1 1 0 0 1 1-1h45.968a1 1 0 0 1 1 1v20.871a1 1 0 0 1 -1 1zm-44.968-2h43.968v-18.871h-43.968z"/><path d="m59.984 61.42h-45.968a1 1 0 0 1 -1-1v-14.954a1 1 0 0 1 1-1h45.968a1 1 0 0 1 1 1v14.954a1 1 0 0 1 -1 1zm-44.968-2h43.968v-12.954h-43.968z"/><path d="m67.33 14.066h-60.66a2.687 2.687 0 0 1 -2.685-2.685v-6.7a2.688 2.688 0 0 1 2.685-2.681h60.66a2.688 2.688 0 0 1 2.685 2.685v6.7a2.687 2.687 0 0 1 -2.685 2.681zm-60.66-10.066a.685.685 0 0 0 -.685.685v6.7a.685.685 0 0 0 .685.685h60.66a.685.685 0 0 0 .685-.685v-6.7a.685.685 0 0 0 -.685-.685z"/><path d="m19.753 72h-6.253a1 1 0 0 1 -1-1v-4.173a1 1 0 0 1 1-1h6.253a1 1 0 0 1 1 1v4.173a1 1 0 0 1 -1 1zm-5.253-2h4.253v-2.173h-4.253z"/><path d="m60.5 72h-6.253a1 1 0 0 1 -1-1v-4.173a1 1 0 0 1 1-1h6.253a1 1 0 0 1 1 1v4.173a1 1 0 0 1 -1 1zm-5.253-2h4.253v-2.173h-4.253z"/><path d="m41.032 52.026h-8.064a1 1 0 0 1 -1-1v-1.846a1 1 0 0 1 2 0v.846h6.064v-.846a1 1 0 1 1 2 0v1.846a1 1 0 0 1 -1 1z"/><path d="m55.713 34.934h-1.847a1 1 0 0 1 -1-1v-8.117a1 1 0 0 1 1-1h1.847a1 1 0 0 1 0 2h-.847v6.117h.847a1 1 0 0 1 0 2z"/><path d="m18.51 36.9a1 1 0 0 1 -1-1v-1.576a1 1 0 0 1 2 0v1.576a1 1 0 0 1 -1 1z"/><path d="m18.51 31.658a1 1 0 0 1 -1-1v-5.8a1 1 0 0 1 2 0v5.8a1 1 0 0 1 -1 1z"/></svg>