<svg id="Icons" height="512" viewBox="0 0 74 74" width="512" xmlns="http://www.w3.org/2000/svg"><path d="m60.588 68.172h-47.176a4.764 4.764 0 0 1 -4.759-4.759v-56.654a4.765 4.765 0 0 1 4.759-4.759h47.176a4.765 4.765 0 0 1 4.759 4.759v56.654a4.764 4.764 0 0 1 -4.759 4.759zm-47.176-64.172a2.763 2.763 0 0 0 -2.759 2.759v56.654a2.762 2.762 0 0 0 2.759 2.759h47.176a2.762 2.762 0 0 0 2.759-2.759v-56.654a2.763 2.763 0 0 0 -2.759-2.759z"/><path d="m41.569 14.541h-9.138a1.973 1.973 0 0 1 -1.971-1.971v-.314a1 1 0 0 1 2 0v.314l9.109-.029-.029-.285a1 1 0 0 1 2 0v.314a1.973 1.973 0 0 1 -1.971 1.971z"/><path d="m41.569 34.152h-9.138a1.973 1.973 0 0 1 -1.971-1.971v-.314a1 1 0 1 1 2 0v.314l9.109-.029-.029-.285a1 1 0 1 1 2 0v.314a1.973 1.973 0 0 1 -1.971 1.971z"/><path d="m41.569 53.763h-9.138a1.974 1.974 0 0 1 -1.971-1.971v-.314a1 1 0 0 1 2 0v.314l9.109-.029-.029-.285a1 1 0 0 1 2 0v.314a1.974 1.974 0 0 1 -1.971 1.971z"/><path d="m41.569 53.722h-9.138a1.973 1.973 0 0 1 -1.971-1.971v-.313a1 1 0 0 1 2 0v.313l9.109-.029-.029-.284a1 1 0 0 1 2 0v.313a1.973 1.973 0 0 1 -1.971 1.971z"/><path d="m20.448 72h-4.406a2.2 2.2 0 0 1 -2.2-2.2v-2.63a1 1 0 0 1 1-1h6.8a1 1 0 0 1 1 1v2.63a2.2 2.2 0 0 1 -2.194 2.2zm-4.6-3.828v1.628a.2.2 0 0 0 .2.2h4.406a.2.2 0 0 0 .2-.2v-1.63z"/><path d="m57.958 72h-4.406a2.2 2.2 0 0 1 -2.2-2.2v-2.63a1 1 0 0 1 1-1h6.8a1 1 0 0 1 1 1v2.63a2.2 2.2 0 0 1 -2.194 2.2zm-4.6-3.828v1.628a.2.2 0 0 0 .2.2h4.406a.2.2 0 0 0 .2-.2v-1.63z"/><path d="m59.206 23.849h-44.412a1 1 0 0 1 -1-1v-14.669a1 1 0 0 1 1-1h44.412a1 1 0 0 1 1 1v14.669a1 1 0 0 1 -1 1zm-43.412-2h42.412v-12.669h-42.412z"/><path d="m59.206 43.46h-44.412a1 1 0 0 1 -1-1v-14.67a1 1 0 0 1 1-1h44.412a1 1 0 0 1 1 1v14.67a1 1 0 0 1 -1 1zm-43.412-2h42.412v-12.67h-42.412z"/><path d="m59.206 63.071h-44.412a1 1 0 0 1 -1-1v-14.671a1 1 0 0 1 1-1h44.412a1 1 0 0 1 1 1v14.67a1 1 0 0 1 -1 1.001zm-43.412-2h42.412v-12.671h-42.412z"/></svg>