<svg id="Icons" height="512" viewBox="0 0 74 74" width="512" xmlns="http://www.w3.org/2000/svg"><path d="m52.68 13.125h-31.615a1 1 0 0 1 -1-1.02c.111-5.667 7.494-10.105 16.808-10.105s16.7 4.438 16.807 10.105a1 1 0 0 1 -1 1.02zm-30.481-2h29.347c-.984-4.012-7.217-7.125-14.673-7.125s-13.69 3.113-14.673 7.125z"/><path d="m52.68 45.391h-31.615a1 1 0 0 1 -1-1v-32.267a1 1 0 0 1 1-1 1 1 0 0 1 1 1v31.267h29.615v-31.267a1 1 0 0 1 2 0v32.267a1 1 0 0 1 -1 1z"/><path d="m28.449 40.163a1 1 0 0 1 -1-1v-21.811a1 1 0 0 1 1-1 1 1 0 0 1 1 1v21.811a1 1 0 0 1 -1 1z"/><path d="m36.871 40.163a1 1 0 0 1 -1-1v-21.811a1 1 0 0 1 1-1 1 1 0 0 1 1 1v21.811a1 1 0 0 1 -1 1z"/><path d="m45.292 40.163a1 1 0 0 1 -1-1v-21.811a1 1 0 0 1 1-1 1 1 0 0 1 1 1v21.811a1 1 0 0 1 -1 1z"/><path d="m56.089 52.5h-38.178a1 1 0 0 1 -1-1v-4.074a4.039 4.039 0 0 1 4.035-4.035h32.108a4.039 4.039 0 0 1 4.035 4.035v4.074a1 1 0 0 1 -1 1zm-37.178-2h36.178v-3.074a2.037 2.037 0 0 0 -2.035-2.035h-32.108a2.037 2.037 0 0 0 -2.035 2.035z"/><path d="m47.9 56.2h-20.816a1 1 0 0 1 0-2h20.816a1 1 0 0 1 0 2z"/><path d="m25.336 72h-3.621a1 1 0 0 1 -1-1v-19.5a1 1 0 0 1 1-1h5.369a1 1 0 0 1 1 1v3.7a1.014 1.014 0 0 1 -.006.11l-1.747 15.8a1 1 0 0 1 -.995.89zm-2.621-2h1.726l1.643-14.852v-2.648h-3.369z"/><path d="m53.267 72h-3.621a1 1 0 0 1 -.995-.89l-1.751-15.797a1.014 1.014 0 0 1 -.006-.11v-3.703a1 1 0 0 1 1-1h5.37a1 1 0 0 1 1 1v19.5a1 1 0 0 1 -.997 1zm-2.726-2h1.726v-17.5h-3.367v2.648z"/></svg>