<svg id="Icons" height="512" viewBox="0 0 74 74" width="512" xmlns="http://www.w3.org/2000/svg"><path d="m69.475 35.99h-64.636a1 1 0 0 1 -1-1v-5.122a1 1 0 0 1 1-1h64.636a1 1 0 0 1 1 1v5.122a1 1 0 0 1 -1 1zm-63.636-2h62.636v-3.122h-62.636z"/><path d="m66.255 52.311h-58.196a1 1 0 0 1 -1-1v-16.321a1 1 0 0 1 1-1h58.2a1 1 0 0 1 1 1v16.321a1 1 0 0 1 -1.004 1zm-57.2-2h56.2v-14.321h-56.196z"/><path d="m14.476 73.646h-6.417a1 1 0 0 1 -1-1v-21.335a1 1 0 0 1 1-1h6.417a1 1 0 0 1 1 1v21.335a1 1 0 0 1 -1 1zm-5.417-2h4.417v-19.335h-4.417z"/><path d="m66.255 73.646h-6.417a1 1 0 0 1 -1-1v-21.335a1 1 0 0 1 1-1h6.417a1 1 0 0 1 1 1v21.335a1 1 0 0 1 -1 1zm-5.417-2h4.417v-19.335h-4.417z"/><path d="m34.784 18.708a1.675 1.675 0 0 1 -1.177-.435c-.786-.721-.722-1.975.2-3.833a17.762 17.762 0 0 1 6.458-7.047c1.772-1.077 3.016-1.248 3.8-.528s.723 1.974-.2 3.833a18.1 18.1 0 0 1 -2.746 3.966 18.129 18.129 0 0 1 -3.712 3.081 5.411 5.411 0 0 1 -2.623.963zm7.798-10.228a12.785 12.785 0 0 0 -4.559 3.346 12.762 12.762 0 0 0 -2.935 4.832 12.758 12.758 0 0 0 4.558-3.346 12.754 12.754 0 0 0 2.936-4.832z"/><path d="m25.642 15.827a1 1 0 0 1 -.766-1.642l5.133-6.122a1 1 0 0 1 1.533 1.286l-5.133 6.121a1 1 0 0 1 -.767.357z"/><path d="m24.764 19.675a3.029 3.029 0 1 1 3.028-3.029 3.033 3.033 0 0 1 -3.028 3.029zm0-4.057a1.029 1.029 0 1 0 1.028 1.028 1.03 1.03 0 0 0 -1.028-1.028z"/><path d="m28.837 30.868h-8.148a1 1 0 0 1 -1-1 4.694 4.694 0 0 1 4.765-4.606h.618a4.694 4.694 0 0 1 4.765 4.606 1 1 0 0 1 -1 1zm-6.936-2h5.724a2.775 2.775 0 0 0 -2.553-1.606h-.618a2.776 2.776 0 0 0 -2.554 1.606z"/><path d="m24.769 27.262a1 1 0 0 1 -1-1v-7.585a1 1 0 0 1 2 0v7.585a1 1 0 0 1 -1 1z"/><path d="m34.646 48.8h-22.146a1 1 0 0 1 -1-1v-9.3a1 1 0 0 1 1-1h22.146a1 1 0 0 1 1 1v9.3a1 1 0 0 1 -1 1zm-21.146-2h20.146v-7.3h-20.146z"/><path d="m25.834 42.808h-4.523a1 1 0 0 1 0-2h4.523a1 1 0 0 1 0 2z"/><path d="m61.815 48.8h-22.147a1 1 0 0 1 -1-1v-9.3a1 1 0 0 1 1-1h22.147a1 1 0 0 1 1 1v9.3a1 1 0 0 1 -1 1zm-21.147-2h20.147v-7.3h-20.147z"/><path d="m53 42.808h-4.52a1 1 0 0 1 0-2h4.52a1 1 0 0 1 0 2z"/><path d="m34.283 18.536a1 1 0 0 1 -.676-.263c-2.607-2.387-3.607-5.346-2.82-8.211l-.2-.183a3.588 3.588 0 1 1 4.849-5.29l.2.182c2.787-1.037 5.82-.293 8.426 2.094a1 1 0 0 1 -1.351 1.475c-1.277-1.17-3.864-2.918-6.847-1.495a1 1 0 0 1 -1.106-.166l-.672-.616a1.588 1.588 0 0 0 -2.146 2.337l.672.616a1 1 0 0 1 .261 1.087c-1.159 3.1.81 5.521 2.086 6.69a1 1 0 0 1 -.676 1.738z"/></svg>